<svg id="Capa_1" enable-background="new 0 0 512 512" height="512" viewBox="0 0 512 512" width="512" xmlns="http://www.w3.org/2000/svg" xmlns:xlink="http://www.w3.org/1999/xlink"><linearGradient id="SVGID_1_" gradientUnits="userSpaceOnUse" x1="74.98" x2="437.018" y1="437.018" y2="74.98"><stop offset="0" stop-color="#0072ff"/><stop offset=".2462" stop-color="#279cf6"/><stop offset=".5952" stop-color="#5ad1ea"/><stop offset=".8572" stop-color="#79f2e3"/><stop offset="1" stop-color="#85ffe0"/></linearGradient><radialGradient id="SVGID_2_" cx="237.746" cy="329.013" gradientUnits="userSpaceOnUse" r="330.426"><stop offset="0" stop-color="#0056e0"/><stop offset=".0458" stop-color="#0061db" stop-opacity=".954"/><stop offset=".2719" stop-color="#0090c7" stop-opacity=".728"/><stop offset=".4873" stop-color="#00b5b6" stop-opacity=".513"/><stop offset=".6864" stop-color="#00d0aa" stop-opacity=".314"/><stop offset=".8633" stop-color="#00e0a3" stop-opacity=".137"/><stop offset="1" stop-color="#00e5a1" stop-opacity="0"/></radialGradient><linearGradient id="lg1"><stop offset="0" stop-color="#230be0"/><stop offset=".3483" stop-color="#1561c7"/><stop offset=".6623" stop-color="#0aa9b2"/><stop offset=".8867" stop-color="#03d5a6"/><stop offset="1" stop-color="#00e5a1"/></linearGradient><linearGradient id="SVGID_3_" gradientUnits="userSpaceOnUse" x1="29.27" x2="476.403" xlink:href="#lg1" y1="459.139" y2="12.005"/><linearGradient id="SVGID_4_" gradientUnits="userSpaceOnUse" x1="-45.274" x2="539.335" xlink:href="#lg1" y1="498.124" y2="-86.485"/><linearGradient id="SVGID_5_" gradientUnits="userSpaceOnUse" x1="65.778" x2="363.754" y1="518.104" y2="220.128"><stop offset="0" stop-color="#3ca1ff"/><stop offset=".137" stop-color="#47affa"/><stop offset=".7197" stop-color="#74e9e7"/><stop offset="1" stop-color="#85ffe0"/></linearGradient><linearGradient id="SVGID_6_" gradientUnits="userSpaceOnUse" x1="109.741" x2="311.455" y1="472.125" y2="270.41"><stop offset="0" stop-color="#3ca1ff"/><stop offset=".2987" stop-color="#4fb9f7"/><stop offset=".9284" stop-color="#7ff7e2"/><stop offset="1" stop-color="#85ffe0"/></linearGradient><g><circle cx="256" cy="256" fill="url(#SVGID_1_)" r="256"/><circle cx="256" cy="256" fill="url(#SVGID_2_)" r="256"/><path d="m414.4 318.431c-32.809-123.644-149.982-215.926-275.504-212.495-.382.009-.762.045-1.14.073 36.323 94.21 78.165 190.498 118.245 286.5 52.434-24.488 105.455-49.466 158.444-73.902-.015-.058-.03-.117-.045-.176z" fill="url(#SVGID_3_)"/><path d="m137.755 106.01c-9.205.689-17.736 6.81-21.021 15.783-2.752 7.523-1.499 15.434 2.983 21.212 11.529 14.872 18.405 33.222 18.094 52.63-.46 28.466-.708 56.932-.742 85.399-.015 13.082-6.709 24.597-16.881 31.283-.053.035-.046.115.011.142 45.396 26.494 90.872 53.453 135.8 80.052 32-24.931 64.363-50.045 96.701-74.95-26.264-123.229-116.709-212.44-214.945-211.551z" fill="url(#SVGID_4_)"/><path d="m414.4 318.431c-26.389.15-26.313-17.225-52.739-17.189-26.412.031-26.459 17.515-52.862 17.574-26.394.044-26.383-17.494-52.802-17.491-26.418-.004-26.404 17.535-52.8 17.491-26.4-.06-26.447-17.544-52.858-17.574-26.424-.035-26.353 17.338-52.74 17.189-21.578-.129-25.603-11.663-40.756-15.893-5.758-1.606-10.994 3.608-9.374 9.24 26.36 89.11 112.188 159.546 208.531 159.698 96.341-.152 182.17-70.588 208.531-159.698 1.621-5.632-3.617-10.845-9.374-9.24-15.154 4.231-19.179 15.763-40.757 15.893z" fill="url(#SVGID_5_)"/><path d="m316.461 440.39c-86.056.99-161.903-53.326-196.408-128.018-5.5 3.34-11.829 6.119-22.453 6.059-21.578-.129-25.603-11.663-40.756-15.893-5.758-1.606-10.994 3.608-9.374 9.24 26.359 89.11 112.187 159.546 208.53 159.698 45.889.022 88.591-15.823 124.291-41.87-20.281 6.744-41.69 10.55-63.83 10.784z" fill="url(#SVGID_6_)"/></g></svg>