<?xml version="1.0" encoding="UTF-8" standalone="no"?>
<svg
   xmlns:dc="http://purl.org/dc/elements/1.1/"
   xmlns:cc="http://creativecommons.org/ns#"
   xmlns:rdf="http://www.w3.org/1999/02/22-rdf-syntax-ns#"
   xmlns:svg="http://www.w3.org/2000/svg"
   xmlns="http://www.w3.org/2000/svg"
   xmlns:sodipodi="http://sodipodi.sourceforge.net/DTD/sodipodi-0.dtd"
   xmlns:inkscape="http://www.inkscape.org/namespaces/inkscape"
   width="1613"
   height="1457"
   viewBox="0 0 1613 1457"
   fill="none"
   version="1.1"
   id="svg4"
   sodipodi:docname="bg5.svg"
   inkscape:version="1.0.2-2 (e86c870879, 2021-01-15)">
  <metadata
     id="metadata10">
    <rdf:RDF>
      <cc:Work
         rdf:about="">
        <dc:format>image/svg+xml</dc:format>
        <dc:type
           rdf:resource="http://purl.org/dc/dcmitype/StillImage" />
        <dc:title></dc:title>
      </cc:Work>
    </rdf:RDF>
  </metadata>
  <defs
     id="defs8" />
  <sodipodi:namedview
     pagecolor="#ffffff"
     bordercolor="#666666"
     borderopacity="1"
     objecttolerance="10"
     gridtolerance="10"
     guidetolerance="10"
     inkscape:pageopacity="0"
     inkscape:pageshadow="2"
     inkscape:window-width="1920"
     inkscape:window-height="1051"
     id="namedview6"
     showgrid="false"
     fit-margin-top="0"
     fit-margin-left="0"
     fit-margin-right="0"
     fit-margin-bottom="0"
     inkscape:zoom="0.47930283"
     inkscape:cx="464.705"
     inkscape:cy="509.33428"
     inkscape:window-x="-9"
     inkscape:window-y="-9"
     inkscape:window-maximized="1"
     inkscape:current-layer="svg4"
     inkscape:document-rotation="0" />
  <g
     style="fill:none"
     id="g19"
     transform="translate(-32.156344,392.81696)">
    <path
       d="M 390.191,1.44657 C 333.802,6.90392 285.164,42.724 243.878,81.4215 202.592,120.169 164.586,163.728 115.152,191.412 c -51.7188,28.973 -112.28106,38.4 -165.3414,64.893 -39.2984,19.646 -74.6226,49.612 -93.7496,89.103 -19.128,39.492 -19.873,89.154 4.322,125.767 42.826,64.893 136.42674,64.844 213.8809,57.6 96.9291,-9.079 193.8591,-18.158 290.8381,-27.237 76.858,-7.194 161.168,-17.96 213.185,-74.914 43.472,-47.579 53.458,-119.119 37.51,-181.532 C 593.39,157.13 496.461,-8.82316 390.191,1.44657 Z"
       fill="#373737"
       id="path8" />
  </g>
  <g
     style="fill:none"
     id="g32"
     transform="translate(975.12087,313.8806)">
    <path
       d="M 549.191,1.44657 C 492.802,6.90392 444.164,42.724 402.878,81.4215 361.592,120.169 323.586,163.728 274.152,191.412 c -51.719,28.973 -112.281,38.4 -165.341,64.893 -39.2988,19.646 -74.6226,49.612 -93.7502,89.103 -19.12753,39.492 -19.87275,89.154 4.3223,125.767 42.8259,64.893 136.4269,64.844 213.8809,57.6 96.929,-9.079 193.859,-18.158 290.838,-27.237 76.858,-7.194 161.168,-17.96 213.185,-74.914 43.472,-47.579 53.458,-119.119 37.51,-181.532 C 752.39,157.13 655.461,-8.82316 549.191,1.44657 Z"
       fill="#373737"
       id="path21" />
  </g>
</svg>
