<?xml version="1.0" encoding="UTF-8" standalone="no"?>
<svg
   xmlns:dc="http://purl.org/dc/elements/1.1/"
   xmlns:cc="http://creativecommons.org/ns#"
   xmlns:rdf="http://www.w3.org/1999/02/22-rdf-syntax-ns#"
   xmlns:svg="http://www.w3.org/2000/svg"
   xmlns="http://www.w3.org/2000/svg"
   xmlns:sodipodi="http://sodipodi.sourceforge.net/DTD/sodipodi-0.dtd"
   xmlns:inkscape="http://www.inkscape.org/namespaces/inkscape"
   width="539"
   height="560"
   viewBox="0 0 539 560"
   fill="none"
   version="1.1"
   id="svg4"
   sodipodi:docname="cardbg.svg"
   inkscape:version="1.0.2-2 (e86c870879, 2021-01-15)">
  <metadata
     id="metadata10">
    <rdf:RDF>
      <cc:Work
         rdf:about="">
        <dc:format>image/svg+xml</dc:format>
        <dc:type
           rdf:resource="http://purl.org/dc/dcmitype/StillImage" />
        <dc:title />
      </cc:Work>
    </rdf:RDF>
  </metadata>
  <defs
     id="defs8" />
  <sodipodi:namedview
     pagecolor="#ffffff"
     bordercolor="#666666"
     borderopacity="1"
     objecttolerance="10"
     gridtolerance="10"
     guidetolerance="10"
     inkscape:pageopacity="0"
     inkscape:pageshadow="2"
     inkscape:window-width="958"
     inkscape:window-height="1041"
     id="namedview6"
     showgrid="false"
     inkscape:zoom="0.45753968"
     inkscape:cx="-76.820238"
     inkscape:cy="468.11093"
     inkscape:window-x="944"
     inkscape:window-y="0"
     inkscape:window-maximized="0"
     inkscape:current-layer="svg4"
     inkscape:document-rotation="0" />
  <path
     d="m 435.1183,183.85016 c -25.683,2.47811 -49.608,18.72988 -61.384,41.66688 -14.252,27.7202 -10.711,61.2616 -20.529,90.8546 -12.754,38.382 -46.1237,65.67 -68.4659,99.326 -26.6323,40.111 -37.1412,88.52 -47.10308,135.633 -6.62207,31.294 -13.15776,64.518 -2.44729,94.658 14.62617,41.149 63.60067,66.506 105.57927,54.721 71.23,-19.998 93.112,-118.806 161.636,-146.728 35.5,-14.465 79.493,-7.693 109.436,-31.668 35.443,-28.411 31.556,-82.786 22.314,-127.277 -7.025,-33.857 -15.231,-67.456 -23.408,-101.055 -6.651,-27.2012 -13.935,-55.6707 -32.851,-76.3312 -23.35,-25.50149 -42.554,-16.0789 -70.856,-16.684 -24.962,-0.5763 -44.512,-19.76728 -71.921,-17.11628 z"
     fill="#AC7BFF"
     id="path2" />
  <path
     d="m 24.253516,-245.93776 c -25.682099,2.478 -49.607899,18.73 -61.383699,41.667 -14.2518,27.72 -10.7105,61.261 -20.528397,90.855 -12.7547,38.381003 -46.1237,65.669503 -68.4667,99.325703 -26.632,40.1108 -37.141,88.520396 -47.103,135.633397 -6.622,31.2929 -13.158,64.5169 -2.447,94.6579 14.626,41.148 63.601,66.506 105.5787,54.72 71.230397,-19.997 93.112066,-118.805 161.636097,-146.7269 35.500193,-14.4653 79.493203,-7.6937 109.437203,-31.668001 35.442,-28.4118 31.555,-82.7861959 22.313,-127.276896 -7.025,-33.8582 -15.231,-67.456203 -23.407,-101.055203 -6.651,-27.201 -13.936,-55.671 -32.852,-76.331 -23.35,-25.502 -42.55401,-16.079 -70.855803,-16.685 -24.9623,-0.576 -44.5118,-19.767 -71.921401,-17.116 z"
     fill="#faf9fa"
     fill-opacity="0.08"
     id="path2-0" />
</svg>
