<svg width="226" height="209" viewBox="0 0 226 209" fill="none" xmlns="http://www.w3.org/2000/svg">
<g clip-path="url(#clip0)">
<path d="M193.189 63.7734C188.396 56.2016 179.612 51.3314 170.663 51.2741C159.845 51.1985 150.013 57.5493 139.309 59.1413C125.423 61.1996 111.742 55.131 97.817 53.4775C81.2206 51.5053 64.5816 55.8302 48.4298 60.1215C37.7007 62.9703 26.3873 66.1482 18.732 74.1886C8.28162 85.1665 8.10558 104.317 18.3355 115.482C35.6939 134.427 69.7231 125.734 89.1114 142.599C99.1557 151.336 103.955 166.032 116.073 171.558C130.427 178.093 146.657 168.372 158.986 158.539C168.37 151.059 177.489 143.253 186.612 135.457C193.994 129.135 201.669 122.419 205.102 113.32C209.339 102.089 203.411 97.6123 199.162 88.7455C195.427 80.9184 198.306 71.8535 193.189 63.7734Z" fill="#AC7BFF"/>
</g>
<defs>
<clipPath id="clip0">
<rect width="142.75" height="180.46" fill="white" transform="translate(161.037) rotate(63.1722)"/>
</clipPath>
</defs>
</svg>
