<svg xmlns="http://www.w3.org/2000/svg" width="100" height="24.138" viewBox="0 0 100 24.138"><defs><style>.a{fill:#90a2ab;}</style></defs><g transform="translate(-347.406 -546.539)"><path class="a" d="M410.069,559.935c.171,0,.327,0,.487,0a1.686,1.686,0,0,0,1.83-1.842c0-.52,0-1.038,0-1.556v-.548a1.768,1.768,0,0,0-2.019-2.036l-6.977.019-.238.01v9.192h1.453v-3.238h.6c.846,0,1.722,0,2.616.012a.491.491,0,0,1,.243.161c.379.442.752.885,1.127,1.33l.086.1c.374.447.751.894,1.13,1.336a.931.931,0,0,0,.556.321,4.107,4.107,0,0,0,.444.02l.3,0h.056c.1,0,.205,0,.319,0h.534l-2.752-3.273Zm.828-1.877c0,.345-.047.389-.4.391h-5.476c-.393,0-.429-.035-.432-.4-.008-.759-.008-1.5,0-2.22,0-.352.049-.4.4-.4.915,0,1.836,0,2.758,0s1.844,0,2.759,0c.338,0,.385.051.387.407C410.9,556.6,410.9,557.351,410.9,558.058Z"/><path class="a" d="M397.831,561.864l-.077.07h0l.069-.079-.106-.131h-6.762v-2.411h5.59v-1.5h-5.6v-2.394h6.962l.022-.434c0-.08.009-.145.009-.221,0-.345.005-.535-.141-.681s-.345-.15-.706-.15h-7.608v9.275h7.4c.493,0,.764,0,.937-.191s.148-.45.1-.962A.32.32,0,0,0,397.831,561.864Z"/><path class="a" d="M383.59,553.936h-2.61q-2.034,0-4.07,0a1.714,1.714,0,0,0-1.875,1.882q0,2.742,0,5.486a1.73,1.73,0,0,0,1.893,1.9l7.317,0v-1.474h-2.371q-2.43,0-4.855,0c-.482,0-.505-.023-.505-.491q0-2.661,0-5.322c0-.509,0-.514.523-.515h7.214v-1.441l-.388-.021C383.762,553.94,383.675,553.936,383.59,553.936Z"/><path class="a" d="M350.7,549.689a.816.816,0,0,0,.932.352l.03-.008q.1-.027.177-.054l1.5-.459c1.413-.434,3.053-.937,4.627-1.4a1.715,1.715,0,0,1,.991,0c1.124.331,2.239.672,3.475,1.053l.37.113c.312.1.623.192.933.286l.382.117c.465.144.929.286,1.394.42a1.019,1.019,0,0,0,.289.045.656.656,0,0,0,.65-.495.7.7,0,0,0-.545-.924l-1.6-.491c-1.386-.425-3.481-1.068-5.408-1.642a1.692,1.692,0,0,0-.893.007c-1,.294-2.022.608-3.007.911l-3.841,1.176a.783.783,0,0,0-.491.369.618.618,0,0,0-.029.5A.712.712,0,0,0,350.7,549.689Z"/><path class="a" d="M417.135,555.429h3.894v7.778h1.487v-7.778h3.876v-1.488h-9.257Z"/><path class="a" d="M443.522,558.573l3.872-4.631h-1.915l-3.26,3.883H439.76v-3.883h-1.5V563.2h1.495V559.32h2.458l3.185,3.789.074.094h1.93Z"/><rect class="a" width="1.487" height="9.262" transform="translate(431.204 553.942)"/><path class="a" d="M368.661,549.584h-.031a.964.964,0,0,0-.745.45c-1.264,2.436-2.565,4.979-3.977,7.774a.36.36,0,0,1-.4.256c-3.334-.011-6.722-.011-10.068,0-.214,0-.287-.048-.392-.256-1.448-2.866-2.749-5.409-3.977-7.774a.952.952,0,0,0-.759-.449H348.3a.844.844,0,0,0-.619.643,19.1,19.1,0,0,0,9.688,19.928c.171.1.31.176.432.249a1.375,1.375,0,0,0,.662.273h.03a1.391,1.391,0,0,0,.674-.277c.114-.067.252-.149.425-.245a19.1,19.1,0,0,0,9.687-19.928A.843.843,0,0,0,368.661,549.584Zm-11.913,18.579c-1.806-.965-4.775-4.251-5.993-6.686a17.514,17.514,0,0,1-1.828-8.582Zm6.271-8.635-4.54,8.862-4.54-8.862Zm3.185,1.949c-1.218,2.435-4.187,5.721-5.993,6.686l7.82-15.268A17.527,17.527,0,0,1,366.2,561.477Z"/></g></svg>