<?xml version="1.0" encoding="UTF-8" standalone="no"?>
<svg
   xmlns:dc="http://purl.org/dc/elements/1.1/"
   xmlns:cc="http://creativecommons.org/ns#"
   xmlns:rdf="http://www.w3.org/1999/02/22-rdf-syntax-ns#"
   xmlns:svg="http://www.w3.org/2000/svg"
   xmlns="http://www.w3.org/2000/svg"
   xmlns:sodipodi="http://sodipodi.sourceforge.net/DTD/sodipodi-0.dtd"
   xmlns:inkscape="http://www.inkscape.org/namespaces/inkscape"
   width="1388"
   height="764"
   viewBox="0 0 1388 764"
   fill="none"
   version="1.1"
   id="svg11"
   sodipodi:docname="bg.svg"
   inkscape:version="1.0.2-2 (e86c870879, 2021-01-15)">
  <metadata
     id="metadata15">
    <rdf:RDF>
      <cc:Work
         rdf:about="">
        <dc:format>image/svg+xml</dc:format>
        <dc:type
           rdf:resource="http://purl.org/dc/dcmitype/StillImage" />
        <dc:title />
      </cc:Work>
    </rdf:RDF>
  </metadata>
  <sodipodi:namedview
     pagecolor="#ffffff"
     bordercolor="#666666"
     borderopacity="1"
     objecttolerance="10"
     gridtolerance="10"
     guidetolerance="10"
     inkscape:pageopacity="0"
     inkscape:pageshadow="2"
     inkscape:window-width="1198"
     inkscape:window-height="1303"
     id="namedview13"
     showgrid="false"
     inkscape:zoom="0.19924275"
     inkscape:cx="716.17408"
     inkscape:cy="1183.7068"
     inkscape:window-x="2400"
     inkscape:window-y="0"
     inkscape:window-maximized="0"
     inkscape:current-layer="svg11"
     inkscape:document-rotation="0" />
  <g
     clip-path="url(#clip0)"
     id="g4"
     transform="translate(-311.17819)">
    <path
       d="m 277.891,192.358 c -36.984,27.795 -58.417,75.006 -55.014,121.082 4.081,55.704 40.826,103.675 53.441,158.098 16.33,70.605 -9.246,143.517 -12.001,215.859 -3.291,86.22 25.84,170.058 54.598,251.401 19.093,54.035 40.121,110.942 84.66,147.012 60.811,49.24 159.433,42.24 212.661,-15.02 C 706.555,973.634 647.757,802.111 726.533,695.37 767.345,640.072 840.988,609.304 864.416,544.66 892.114,468.092 835.384,388.591 779.69,329.206 737.319,284.007 693.383,240.307 649.492,196.58 613.91,161.207 576.175,124.488 527.934,110.581 468.388,93.4164 447.802,125.773 403.93,151.302 c -38.736,22.452 -86.573,11.383 -126.039,41.056 z"
       fill="#AC7BFF"
       id="path2" />
  </g>
  <defs
     id="defs9">
    <clipPath
       id="clip0">
      <rect
         width="736.95697"
         height="931.638"
         fill="#ffffff"
         transform="rotate(-31.4186,664.43149,257.85786)"
         id="rect6"
         x="0"
         y="0" />
    </clipPath>
  </defs>
  <path
     d="M 1182.8236,2.9449359 C 1054.2436,15.389546 943.32361,97.071743 849.18261,185.31555 c -94.146,88.357 -180.814,187.688 -293.539,250.816 -117.937,66.07 -256.04,87.565 -377.036,147.978 -89.614002,44.801 -170.1650021,113.133 -213.782002,203.187 -43.617,90.054 -45.317,203.301 9.856,286.78995 97.658,147.98 311.100002,147.87 487.722002,131.35 221.033,-20.7 442.066,-41.41 663.20999,-62.11 175.26,-16.4 367.52,-40.95 486.14,-170.83095 99.13,-108.494 121.9,-271.632 85.53,-413.954 -51.09,-200.585 -272.12,-579.015204 -514.46,-555.5966141 z"
     fill="#F0E8FF"
     id="path2-5" />
</svg>
